<svg xmlns="http://www.w3.org/2000/svg" width="48" height="48" viewBox="0 0 24 24" fill="none"><ellipse cx="8" cy="4.5" rx="2" ry="2.5" fill="#be9dff"/><ellipse cx="16" cy="4.5" rx="2" ry="2.5" fill="#be9dff"/><ellipse cx="4.5" cy="9" rx="2" ry="2.5" fill="#be9dff" transform="rotate(-15 4.5 9)"/><ellipse cx="19.5" cy="9" rx="2" ry="2.5" fill="#be9dff" transform="rotate(15 19.5 9)"/><path d="M7 15c0-3.5 2.5-5 5-5s5 1.5 5 5c0 2-1 3.5-2.5 4.5-.8.5-1.5 1.2-1.5 2v.5a1 1 0 0 1-2 0v-.5c0-.8-.7-1.5-1.5-2C8 18.5 7 17 7 15z" fill="#be9dff"/></svg>